<mxfile host="app.diagrams.net" modified="2023-05-31T16:08:30.923Z" agent="Mozilla/5.0 (Windows NT 10.0; Win64; x64) AppleWebKit/537.36 (KHTML, like Gecko) Chrome/113.0.0.0 Safari/537.36" version="21.3.6" etag="xEZnGc-eda4rus-K212M" type="github">
  <diagram name="Page-1" id="weR-XBLOCwuugeU20dnk">
    <mxGraphModel>
      <root>
        <mxCell id="0" />
        <mxCell id="1" parent="0" />
      </root>
    </mxGraphModel>
  </diagram>
</mxfile>
